<svg xmlns="http://www.w3.org/2000/svg" viewBox="0 0 512 512"><defs><style>.cls-1{fill:#7cc8fb;}.cls-2{fill:#fff;}.cls-3{fill:#dddbdb;}.cls-4{fill:#c6c6c6;}.cls-5{fill:#00b564;}</style></defs><g id="BULINE"><circle class="cls-1" cx="256" cy="256" r="256"/></g><g id="Icons"><path class="cls-2" d="M394.29,118.61V432a13.49,13.49,0,0,1-13.48,13.48H132.24A13.49,13.49,0,0,1,118.76,432V73a13.49,13.49,0,0,1,13.48-13.48h203Z"/><path class="cls-3" d="M394.29,118.61V432a13.49,13.49,0,0,1-13.48,13.48H361.56A13.49,13.49,0,0,0,375,432V118.61L316,59.55h19.25Z"/><path class="cls-4" d="M394.29,118.61h-45.6a13.47,13.47,0,0,1-13.47-13.48V59.55Z"/><path class="cls-5" d="M116.64,336.39H397.28a0,0,0,0,1,0,0V438.52A12.24,12.24,0,0,1,385,450.76H128.88a12.24,12.24,0,0,1-12.24-12.24V336.39A0,0,0,0,1,116.64,336.39Z"/><polygon class="cls-5" points="215.82 59.55 192.45 59.55 173.89 90.14 155.33 59.55 131.96 59.55 162.21 109.39 131.96 159.24 155.33 159.24 173.89 128.65 192.45 159.24 215.82 159.24 185.58 109.39 215.82 59.55"/><path class="cls-3" d="M221.66,134.47V224H132.32v96.54H362.66v-186Zm96.33,7h37.67v37.67H318ZM266.32,231v37.63H228.66V231ZM311,268.64H273.32V231H311ZM273.32,224V186.34H311V224Zm0-82.5H311v37.67H273.32Zm-44.66,0h37.66v37.67H228.66Zm0,44.87h37.66V224H228.66ZM184,231h37.67v37.67H184Zm-44.67,0H177v37.67H139.32ZM177,313.51H139.32V275.84H177Zm44.67,0H184V275.84h37.67Zm44.66,0H228.66V275.84h37.66Zm44.67,0H273.32V275.84H311Zm44.67,0H318V275.84h37.67Zm0-44.87H318V231h37.67ZM318,224V186.34h37.67V224Z"/><path class="cls-2" d="M176.87,421.89v-9.27H185l13.36-18.87L185,376.27h-7.54V367h28.73v9.26h-5.26l7.7,9.68,7-9.68h-5V367h24.74v9.27h-7.61l-13,18,14.36,18.33H237v9.27H207.45v-9.27H213l-8.29-10.83-7.86,10.83h5.64v9.27Z"/><path class="cls-2" d="M239.06,421.89v-9.27h7.86V376.27h-7.86V367h30.15v9.27h-8v36.35h16.22v-17h10.69v26.24Z"/><path class="cls-2" d="M292.85,421.89v-18.7h9.31c.11,3.42,1,5.93,2.69,7.55a8.07,8.07,0,0,0,5.76,2.43,5.77,5.77,0,0,0,4.26-1.76,5.66,5.66,0,0,0,1.74-4.12,5.8,5.8,0,0,0-1.7-4.24,23.73,23.73,0,0,0-6.2-3.91q-9.52-4.59-12.93-8.11t-3.4-9.48q0-7.2,4.49-11.15a15,15,0,0,1,10.22-3.95,11.68,11.68,0,0,1,10.15,5.11V367h9.27v16.69h-9.27a9.35,9.35,0,0,0-2.67-6,7.32,7.32,0,0,0-5.19-2.11,6.09,6.09,0,0,0-3.86,1.23,3.82,3.82,0,0,0-1.58,3.19,4.87,4.87,0,0,0,1.3,3.22c.87,1,3.41,2.45,7.62,4.3a63.18,63.18,0,0,1,9.34,4.91,15.78,15.78,0,0,1,5.14,5.68,16.74,16.74,0,0,1,1.89,8.08c0,5.42-1.58,9.51-4.73,12.24a16.56,16.56,0,0,1-11.21,4.11q-7.21,0-11.13-5.35v4.68Z"/></g></svg>