<svg xmlns="http://www.w3.org/2000/svg" viewBox="0 0 512 512"><defs><style>.cls-1{fill:#27273d;}.cls-2{fill:#f6d372;}.cls-3{fill:#f6c752;}.cls-4{fill:#f7bb38;}.cls-5{fill:#fff;}.cls-6{fill:#e2e2e2;}.cls-7{fill:#c6c6c6;}.cls-8{fill:#e88032;}</style></defs><g id="BULINE"><circle class="cls-1" cx="256" cy="256" r="256"/></g><g id="Icons"><path class="cls-2" d="M406.3,120.91V436a13.55,13.55,0,0,1-13.55,13.55H142.83A13.55,13.55,0,0,1,129.28,436V75.08a13.55,13.55,0,0,1,13.55-13.55H346.91Z"/><path class="cls-3" d="M406.3,120.91V436a13.55,13.55,0,0,1-13.55,13.55H373.4A13.55,13.55,0,0,0,387,436V120.91L327.56,61.53h19.35Z"/><path class="cls-4" d="M406.3,120.91H360.46a13.55,13.55,0,0,1-13.55-13.55V61.53Z"/><path class="cls-3" d="M129.28,177.56H242.34a0,0,0,0,1,0,0v6.3a10,10,0,0,1-10,10h-103a0,0,0,0,1,0,0V177.56A0,0,0,0,1,129.28,177.56Z"/><path class="cls-5" d="M114,114.94H242.57a7.52,7.52,0,0,1,7.52,7.52V170a7.52,7.52,0,0,1-7.52,7.52H106.49a0,0,0,0,1,0,0V122.47A7.52,7.52,0,0,1,114,114.94Z"/><path class="cls-6" d="M250.09,169.09V170a7.53,7.53,0,0,1-7.52,7.53H106.49V122.47a7.53,7.53,0,0,1,7.53-7.53h3.87v19.59a34.56,34.56,0,0,0,34.56,34.56Z"/><polygon class="cls-7" points="106.49 177.56 129.28 203.55 129.28 177.56 106.49 177.56"/><rect class="cls-5" x="159.4" y="226.72" width="58" height="31.33" rx="3.16"/><rect class="cls-5" x="159.4" y="265.72" width="58" height="135.33" rx="3.16"/><rect class="cls-5" x="233.4" y="226.72" width="133.53" height="31.33" rx="3.16"/><rect class="cls-5" x="233.4" y="265.72" width="38" height="21.51" rx="3.16"/><rect class="cls-5" x="281.16" y="265.72" width="38" height="21.51" rx="3.16"/><rect class="cls-5" x="328.93" y="265.72" width="38" height="21.51" rx="3.16"/><rect class="cls-5" x="233.4" y="294.5" width="38" height="21.51" rx="3.16"/><rect class="cls-5" x="281.16" y="294.5" width="38" height="21.51" rx="3.16"/><rect class="cls-5" x="328.93" y="294.5" width="38" height="21.51" rx="3.16"/><rect class="cls-5" x="233.4" y="322.85" width="38" height="21.51" rx="3.16"/><rect class="cls-5" x="281.16" y="322.85" width="38" height="21.51" rx="3.16"/><rect class="cls-5" x="328.93" y="322.85" width="38" height="21.51" rx="3.16"/><rect class="cls-5" x="233.4" y="351.19" width="38" height="21.51" rx="3.16"/><rect class="cls-5" x="281.16" y="351.19" width="38" height="21.51" rx="3.16"/><rect class="cls-5" x="328.93" y="351.19" width="38" height="21.51" rx="3.16"/><rect class="cls-5" x="233.4" y="379.54" width="38" height="21.51" rx="3.16"/><rect class="cls-5" x="281.16" y="379.54" width="38" height="21.51" rx="3.16"/><rect class="cls-5" x="328.93" y="379.54" width="38" height="21.51" rx="3.16"/><path class="cls-8" d="M151.29,126.09h7.12v14.84h-7.12q-3-8-10.51-8-6.18,0-9.35,4.21a16.31,16.31,0,0,0-3.16,10.09,14.46,14.46,0,0,0,3.35,10,10.84,10.84,0,0,0,8.52,3.81,10.72,10.72,0,0,0,7.43-2.88,14.7,14.7,0,0,0,4.3-8l8.3,3.95q-4.72,14.69-20.81,14.68-11.37,0-17.14-6.12t-5.77-15.48a22.22,22.22,0,0,1,3-11.66,19.21,19.21,0,0,1,8.08-7.53,24.53,24.53,0,0,1,11.13-2.53,20,20,0,0,1,12.63,3.94Z"/><path class="cls-8" d="M164.77,168.23V153.87h7.15c.09,2.62.77,4.56,2.06,5.8a6.24,6.24,0,0,0,4.43,1.86,4.42,4.42,0,0,0,3.27-1.35A4.34,4.34,0,0,0,183,157a4.44,4.44,0,0,0-1.3-3.26,18.38,18.38,0,0,0-4.76-3q-7.32-3.52-9.93-6.22a10,10,0,0,1-2.61-7.29q0-5.52,3.46-8.55a11.51,11.51,0,0,1,7.84-3,9,9,0,0,1,7.79,3.92v-3.49h7.12V138.9H183.5a7.18,7.18,0,0,0-2.05-4.59,5.61,5.61,0,0,0-4-1.62,4.69,4.69,0,0,0-3,.94,2.94,2.94,0,0,0-1.21,2.45,3.73,3.73,0,0,0,1,2.47c.66.78,2.62,1.88,5.85,3.31a50.08,50.08,0,0,1,7.17,3.76,12.21,12.21,0,0,1,3.95,4.37,12.9,12.9,0,0,1,1.45,6.2q0,6.24-3.64,9.4a12.7,12.7,0,0,1-8.6,3.15,10,10,0,0,1-8.55-4.1v3.59Z"/><path class="cls-8" d="M212.25,168.5l-12.54-35.3h-5v-7.11h21.51v7.11h-5.46l7.09,21.12,7.11-21.12h-5.38v-7.11h18.66v7.11h-5.12L221,168.5Z"/></g></svg>