<svg xmlns="http://www.w3.org/2000/svg" viewBox="0 0 512 512"><defs><style>.cls-1{fill:#f7bb38;}.cls-2{fill:#fff;}.cls-3{fill:#e5e5e5;}.cls-4{fill:#cecece;}.cls-5{fill:#f55b4b;}.cls-6{fill:#dd4e43;}.cls-7{fill:#db1b1b;}</style></defs><g id="BULINE"><circle class="cls-1" cx="256" cy="256" r="256"/></g><g id="Icons"><path class="cls-2" d="M408.57,118.21V438.92a13.79,13.79,0,0,1-13.79,13.79H140.42a13.78,13.78,0,0,1-13.79-13.79V71.57a13.79,13.79,0,0,1,13.79-13.8h207.7Z"/><path class="cls-3" d="M408.57,118.21V438.92a13.8,13.8,0,0,1-13.79,13.79h-19.7a13.8,13.8,0,0,0,13.79-13.79V118.21L328.43,57.77h19.69Z"/><path class="cls-4" d="M408.57,118.21H361.92a13.8,13.8,0,0,1-13.8-13.79V57.77Z"/><rect class="cls-4" x="176.51" y="224.8" width="183.83" height="20.04" rx="10.02"/><rect class="cls-4" x="176.51" y="276.1" width="183.83" height="20.04" rx="10.02"/><rect class="cls-4" x="176.51" y="327.4" width="183.83" height="20.04" rx="10.02"/><path class="cls-5" d="M111.09,129H241.93a7.66,7.66,0,0,1,7.66,7.66V185.1a7.66,7.66,0,0,1-7.66,7.66H103.43a0,0,0,0,1,0,0V136.69A7.66,7.66,0,0,1,111.09,129Z"/><path class="cls-6" d="M249.59,184.14v1a7.66,7.66,0,0,1-7.66,7.66H103.43V136.69a7.66,7.66,0,0,1,7.66-7.66H115V149a35.17,35.17,0,0,0,35.17,35.17Z"/><polygon class="cls-7" points="103.43 192.76 126.63 219.21 126.63 192.76 103.43 192.76"/><path class="cls-2" d="M140.92,173v6.72H120V173H125v-26.3H120v-6.71h20.93q7.32,0,11.3,3.42a11.54,11.54,0,0,1,4,9.23,12.77,12.77,0,0,1-1.4,6,10.67,10.67,0,0,1-3.58,4.14,13.47,13.47,0,0,1-5,2,38.32,38.32,0,0,1-7,.53h-3.8V173Zm-5.54-14.33h1.54q5.33,0,6.84-1.73a6.25,6.25,0,0,0,1.53-4.3,6.37,6.37,0,0,0-1-3.7,4.39,4.39,0,0,0-2.43-1.89,20.47,20.47,0,0,0-4.49-.35h-1.94Z"/><path class="cls-2" d="M158.63,179.67V173h6v-26.3h-6v-6.71h18.82a51.07,51.07,0,0,1,9.57.72,17.19,17.19,0,0,1,6.94,3.23,17.75,17.75,0,0,1,5.31,6.7,21.27,21.27,0,0,1,2,9.31,22.32,22.32,0,0,1-1.4,7.9,18.66,18.66,0,0,1-3.47,6,15.42,15.42,0,0,1-5,3.66,20.79,20.79,0,0,1-5.3,1.76,51.19,51.19,0,0,1-7.47.4ZM175,173h2.48a18,18,0,0,0,7.16-1.17,8.94,8.94,0,0,0,4.24-4.13,16.13,16.13,0,0,0,1.6-7.72,16.9,16.9,0,0,0-1.61-7.71,9,9,0,0,0-4.37-4.37,17.71,17.71,0,0,0-7-1.2H175Z"/><path class="cls-2" d="M205.82,179.67V173h5.68v-26.3h-5.68v-6.71h35.56v12.25h-7.6v-5.54H221.84v9.19h8.6v6.72h-8.6V173H228v6.72Z"/><path class="cls-3" d="M126.63,192.76H242.29a0,0,0,0,1,0,0v3a15.63,15.63,0,0,1-15.63,15.63h-100a0,0,0,0,1,0,0V192.76a0,0,0,0,1,0,0Z"/></g></svg>